<svg xmlns="http://www.w3.org/2000/svg" width="80" height="60" viewBox="0 0 80 60">
  <rect width="80" height="60" rx="4" fill="#f0f4ff"/>
  <rect x="4" y="4" width="22" height="24" rx="3" fill="#3B82F6" opacity="0.2"/>
  <rect x="29" y="4" width="22" height="24" rx="3" fill="#3B82F6" opacity="0.2"/>
  <rect x="54" y="4" width="22" height="24" rx="3" fill="#3B82F6" opacity="0.2"/>
  <rect x="8" y="8" width="14" height="8" rx="2" fill="#3B82F6" opacity="0.5"/>
  <rect x="33" y="8" width="14" height="8" rx="2" fill="#3B82F6" opacity="0.5"/>
  <rect x="58" y="8" width="14" height="8" rx="2" fill="#3B82F6" opacity="0.5"/>
  <rect x="8" y="19" width="14" height="2" rx="1" fill="#3B82F6" opacity="0.3"/>
  <rect x="33" y="19" width="14" height="2" rx="1" fill="#3B82F6" opacity="0.3"/>
  <rect x="58" y="19" width="14" height="2" rx="1" fill="#3B82F6" opacity="0.3"/>
  <rect x="8" y="23" width="10" height="2" rx="1" fill="#3B82F6" opacity="0.2"/>
  <rect x="33" y="23" width="10" height="2" rx="1" fill="#3B82F6" opacity="0.2"/>
  <rect x="58" y="23" width="10" height="2" rx="1" fill="#3B82F6" opacity="0.2"/>
  <rect x="4" y="32" width="72" height="24" rx="3" fill="#3B82F6" opacity="0.08"/>
  <rect x="8" y="36" width="64" height="3" rx="1" fill="#3B82F6" opacity="0.2"/>
  <rect x="8" y="42" width="64" height="3" rx="1" fill="#3B82F6" opacity="0.15"/>
  <rect x="8" y="48" width="64" height="3" rx="1" fill="#3B82F6" opacity="0.1"/>
</svg>
