<svg xmlns="http://www.w3.org/2000/svg" width="80" height="60" viewBox="0 0 80 60">
  <rect width="80" height="60" rx="4" fill="#ede9fe"/>
  <rect x="6" y="8" width="68" height="10" rx="2" fill="#8B5CF6" opacity="0.2"/>
  <rect x="8" y="10" width="18" height="6" rx="1" fill="#8B5CF6" opacity="0.5"/>
  <rect x="30" y="10" width="18" height="6" rx="1" fill="#8B5CF6" opacity="0.5"/>
  <rect x="52" y="10" width="18" height="6" rx="1" fill="#8B5CF6" opacity="0.5"/>
  <rect x="8" y="22" width="16" height="3" rx="1" fill="#8B5CF6" opacity="0.2"/>
  <rect x="30" y="22" width="14" height="3" rx="1" fill="#8B5CF6" opacity="0.2"/>
  <rect x="52" y="22" width="12" height="3" rx="1" fill="#8B5CF6" opacity="0.2"/>
  <rect x="8" y="29" width="14" height="3" rx="1" fill="#8B5CF6" opacity="0.15"/>
  <rect x="30" y="29" width="16" height="3" rx="1" fill="#8B5CF6" opacity="0.15"/>
  <rect x="52" y="29" width="14" height="3" rx="1" fill="#8B5CF6" opacity="0.15"/>
  <rect x="8" y="36" width="18" height="3" rx="1" fill="#8B5CF6" opacity="0.1"/>
  <rect x="30" y="36" width="12" height="3" rx="1" fill="#8B5CF6" opacity="0.1"/>
  <rect x="52" y="36" width="16" height="3" rx="1" fill="#8B5CF6" opacity="0.1"/>
  <rect x="8" y="43" width="12" height="3" rx="1" fill="#8B5CF6" opacity="0.08"/>
  <rect x="30" y="43" width="18" height="3" rx="1" fill="#8B5CF6" opacity="0.08"/>
  <rect x="52" y="43" width="10" height="3" rx="1" fill="#8B5CF6" opacity="0.08"/>
  <line x1="6" y1="18" x2="74" y2="18" stroke="#8B5CF6" stroke-width="0.5" opacity="0.3"/>
  <text x="40" y="55" text-anchor="middle" font-family="sans-serif" font-size="6" fill="#6d28d9">1-25 of 100</text>
</svg>
